<svg width="295" height="60" viewBox="0 0 295 60" fill="none" xmlns="http://www.w3.org/2000/svg">
<path fill-rule="evenodd" clip-rule="evenodd" d="M24.8996 12.561C28.3695 12.561 31.1801 9.75047 31.1801 6.28052C31.1801 2.81057 28.3695 0 24.8996 0C21.4296 0 18.619 2.81057 18.619 6.28052C18.619 9.75047 21.4296 12.561 24.8996 12.561ZM0 0.527497V44.1862H10.5417V0.527497H0ZM19.7729 15.2892V44.1862H30.3888V15.2892H19.7729ZM86.7075 59.8051V46.1643C85.1744 45.7687 83.7238 45.1917 82.3556 44.4334C79.4956 42.8427 77.229 40.6668 75.5558 37.9057C73.9239 35.1363 73.1079 32.029 73.1079 28.5838C73.1079 25.1386 73.9239 21.9818 75.5558 19.2619C77.2372 16.4925 79.5038 14.3166 82.3556 12.7341C85.2156 11.1022 88.4301 10.2862 92.0154 10.2862C95.6008 10.2862 98.7987 11.1022 101.609 12.7341C104.469 14.3249 106.711 16.5008 108.343 19.2619C110.025 21.9818 110.857 25.0891 110.857 28.5838C110.857 32.0785 110.016 35.1363 108.343 37.9057C106.711 40.675 104.469 42.851 101.609 44.4334C100.258 45.1835 98.8317 45.7604 97.3234 46.1561V59.8133H86.7075V59.8051ZM92.0154 37.6337C93.6968 37.6337 95.1474 37.2216 96.3672 36.4056C97.5953 35.5896 98.5432 34.5017 99.2273 33.1417C99.9032 31.7817 100.249 30.2405 100.249 28.5179C100.249 26.7952 99.9114 25.3199 99.2273 23.9599C98.5432 22.6 97.5953 21.512 96.3672 20.696C95.1392 19.8801 93.6886 19.468 92.0154 19.468C90.3423 19.468 88.8587 19.8801 87.5976 20.696C86.3696 21.512 85.4217 22.6 84.7376 23.9599C84.0535 25.3199 83.7156 26.8365 83.7156 28.5179C83.7156 30.1993 84.0535 31.7817 84.7376 33.1417C85.4134 34.5017 86.3696 35.5896 87.5976 36.4056C88.8669 37.2216 90.3423 37.6337 92.0154 37.6337ZM36.9413 44.2933V27.3227C36.9413 24.6028 37.6007 22.1302 38.9195 19.9213C40.2382 17.7124 42.1091 15.9403 44.5406 14.6216C47.005 13.3028 49.9227 12.6435 53.2855 12.6435C56.6483 12.6435 59.5825 13.3028 61.9645 14.6216C64.3877 15.9403 66.2422 17.7041 67.5197 19.9213C68.7972 22.1384 69.4319 24.6028 69.4319 27.3227V44.2933H59.5331V28.2459C59.5331 27.1002 59.2529 26.0534 58.7006 25.1138C58.1484 24.133 57.3819 23.3665 56.4011 22.8143C55.4614 22.2208 54.3982 21.9241 53.2113 21.9241C52.0245 21.9241 50.8706 22.2208 49.8898 22.8143C48.9502 23.3665 48.2084 24.133 47.6561 25.1138C47.1039 26.0534 46.8237 27.092 46.8237 28.2459V44.2933H36.9248H36.9413Z" fill="#001C52"/>
<path d="M110.761 12.4079C114.184 12.4079 116.959 9.63293 116.959 6.20982C116.959 2.7867 114.184 0.0117188 110.761 0.0117188C107.337 0.0117188 104.562 2.7867 104.562 6.20982C104.562 9.63293 107.337 12.4079 110.761 12.4079Z" fill="#1767FE"/>
<path fill-rule="evenodd" clip-rule="evenodd" d="M164.438 4.5332V44.6066H174.114V4.5332H164.438Z" fill="#1767FE"/>
<path fill-rule="evenodd" clip-rule="evenodd" d="M222.297 4.5332V41.5487H232.196V4.5332H222.297Z" fill="#1767FE"/>
<path fill-rule="evenodd" clip-rule="evenodd" d="M223.125 41.538V25.9603C223.125 23.4629 223.727 21.1963 224.938 19.1605C226.15 17.1329 227.864 15.5092 230.098 14.2976C232.364 13.0861 235.043 12.4844 238.126 12.4844C241.208 12.4844 243.903 13.0861 246.096 14.2976C248.321 15.5092 250.019 17.1329 251.198 19.1605C252.368 21.1881 252.953 23.4547 252.953 25.9603V41.538H243.87V26.8092C243.87 25.7542 243.615 24.7981 243.112 23.941C242.601 23.0426 241.901 22.342 241.002 21.831C240.145 21.287 239.164 21.0068 238.076 21.0068C236.988 21.0068 235.925 21.2788 235.027 21.831C234.169 22.342 233.485 23.0426 232.974 23.941C232.463 24.7981 232.216 25.7542 232.216 26.8092V41.538H223.133H223.125Z" fill="#1767FE"/>
<path d="M158.504 14.1338L154.374 28.6592L158.504 43.1846L149.569 45.4844L148.427 41.4658C147.633 42.1244 146.77 42.7159 145.833 43.2373C141.036 45.8995 132.976 45.9159 128.162 43.2373C125.533 41.7867 123.455 39.7837 121.914 37.2451C120.414 34.7067 119.664 31.8964 119.664 28.6904C119.664 25.4843 120.414 22.6321 121.914 20.1348C123.455 17.5962 125.541 15.6014 128.162 14.1426C130.783 12.6426 133.742 11.8926 137.03 11.8926C140.319 11.8926 143.253 12.6425 145.833 14.1426C146.764 14.6579 147.623 15.2444 148.413 15.8984L149.569 11.834L158.504 14.1338ZM137.03 20.3164C135.497 20.3164 134.138 20.6867 132.976 21.4365C131.855 22.1866 130.981 23.1847 130.354 24.4375C129.728 25.6902 129.414 27.0417 129.414 28.624C129.414 30.2065 129.728 31.6163 130.354 32.8691C130.973 34.1218 131.855 35.1192 132.976 35.8691C134.138 36.619 135.489 36.9902 137.03 36.9902C138.571 36.9902 139.906 36.619 141.027 35.8691C142.148 35.1192 143.022 34.1218 143.648 32.8691C144.275 31.6246 144.588 30.1653 144.588 28.624C144.588 27.0829 144.275 25.6902 143.648 24.4375C143.03 23.1847 142.148 22.1866 141.027 21.4365C139.907 20.6867 138.563 20.3164 137.03 20.3164Z" fill="#1767FE"/>
<path fill-rule="evenodd" clip-rule="evenodd" d="M289.757 20.1347C288.257 17.5961 286.196 15.5933 283.575 14.1427C280.995 12.6426 278.061 11.8926 274.772 11.8926C271.484 11.8926 268.525 12.6426 265.904 14.1427C263.283 15.6015 261.198 17.5961 259.656 20.1347C258.156 22.6321 257.406 25.4839 257.406 28.6901C257.406 31.8963 258.156 34.7069 259.656 37.2454C261.198 39.784 263.275 41.7869 265.904 43.2375C270.717 45.9162 278.778 45.8997 283.575 43.2375C286.196 41.7786 288.257 39.784 289.757 37.2454C291.298 34.7069 292.064 31.8551 292.064 28.6901C292.064 25.5251 291.298 22.6321 289.757 20.1347ZM281.383 32.8689C280.756 34.1217 279.883 35.119 278.762 35.869C277.641 36.619 276.306 36.9899 274.764 36.9899C273.223 36.9899 271.871 36.619 270.709 35.869C269.588 35.119 268.706 34.1217 268.088 32.8689C267.462 31.6161 267.148 30.2066 267.148 28.6241C267.148 27.0417 267.462 25.6899 268.088 24.4371C268.715 23.1843 269.588 22.187 270.709 21.437C271.871 20.687 273.231 20.3161 274.764 20.3161C276.297 20.3161 277.641 20.687 278.762 21.437C279.883 22.187 280.765 23.1843 281.383 24.4371C282.009 25.6899 282.322 27.0829 282.322 28.6241C282.322 30.1654 282.009 31.6243 281.383 32.8689Z" fill="#1767FE"/>
<path d="M294.178 12.2051H285.375V44.605H294.178V12.2051Z" fill="#1767FE"/>
<path fill-rule="evenodd" clip-rule="evenodd" d="M213.585 20.1347C212.085 17.5961 210.024 15.5933 207.403 14.1427C204.823 12.6426 201.889 11.8926 198.601 11.8926C195.312 11.8926 192.353 12.6426 189.732 14.1427C187.111 15.6015 185.026 17.5961 183.484 20.1347C181.984 22.6321 181.234 25.4839 181.234 28.6901C181.234 31.8963 181.984 34.7069 183.484 37.2454C185.026 39.784 187.103 41.7869 189.732 43.2375C194.545 45.9162 202.606 45.8997 207.403 43.2375C210.024 41.7786 212.085 39.784 213.585 37.2454C215.126 34.7069 215.893 31.8551 215.893 28.6901C215.893 25.5251 215.126 22.6321 213.585 20.1347ZM205.219 32.8689C204.593 34.1217 203.719 35.119 202.598 35.869C201.477 36.619 200.142 36.9899 198.601 36.9899C197.059 36.9899 195.708 36.619 194.545 35.869C193.424 35.119 192.543 34.1217 191.924 32.8689C191.298 31.6161 190.985 30.2066 190.985 28.6241C190.985 27.0417 191.298 25.6899 191.924 24.4371C192.551 23.1843 193.424 22.187 194.545 21.437C195.708 20.687 197.068 20.3161 198.601 20.3161C200.134 20.3161 201.477 20.687 202.598 21.437C203.719 22.187 204.601 23.1843 205.219 24.4371C205.845 25.6899 206.159 27.0829 206.159 28.6241C206.159 30.1654 205.845 31.6243 205.219 32.8689Z" fill="#1767FE"/>
<path d="M190.977 28.4043H181.234V55.216H190.977V28.4043Z" fill="#1767FE"/>
</svg>
